# xmcd CD database file
#
# Track frame offsets:
#	150
#	12700
#	28911
#	42987
#	59988
#	71613
#	86957
#	104472
#	114335
#	125797
#	137872
#	149547
#	157647
#	169347
#	182322
#	194197
#	208147
#	220285
#
# Disc length: 3150 seconds
#
# Revision: 1
# Processed by: cddbd v1.5PL3 Copyright (c) Steve Scherf et al.
# Submitted via: CDex 1.51
#
DISCID=260c4c12
DTITLE=Ella Fitzgerald - The Complete Singles Volume1b
DYEAR=1900
DGENRE=Jazz
TTITLE0=The Secret Of Christmas
TTITLE1=We Three Kings-O Little Town
TTITLE2=Ich Fühle Mich Crazy
TTITLE3=(You'll Have To Swing It) Mr Paganini
TTITLE4=Call Me Darling
TTITLE5=Bill Bailey Won't You Please Come Home
TTITLE6=Ol' Man Mose
TTITLE7=Desafinado
TTITLE8=Stardust Bossa Nova
TTITLE9=All The Live Long Day
TTITLE10=I'm A Poached Egg (Without Toast)
TTITLE11=Ringo Beat
TTITLE12=I'm Fallin' In Love
TTITLE13=She's just A Quiet Girl
TTITLE14=We Three (My Echo My Shadow And Me)
TTITLE15=The Shadow Of Your Smile
TTITLE16=A Place For Lovers
TTITLE17=Lonely Is
EXTD=
EXTT0=
EXTT1=
EXTT2=
EXTT3=
EXTT4=
EXTT5=
EXTT6=
EXTT7=
EXTT8=
EXTT9=
EXTT10=
EXTT11=
EXTT12=
EXTT13=
EXTT14=
EXTT15=
EXTT16=
EXTT17=
PLAYORDER=
